<svg xmlns="http://www.w3.org/2000/svg" width="1200" height="540" viewBox="0 0 1200 540" text-rendering="optimizeLegibility" role="img" aria-labelledby="title">
<title id="title">Alpaca at a glance</title>
<rect width="1200" height="540" fill="#0d1117"/>
<defs><marker id="arrow" markerWidth="8" markerHeight="8" refX="7" refY="4" orient="auto"><path d="M0 0L8 4L0 8Z" fill="#79b8ff"/></marker></defs>
<text x="40" y="35" font-family="Arial, Helvetica, sans-serif" font-size="24" font-weight="700" text-anchor="start" fill="#e6edf3">Alpaca at a glance</text>
<rect x="967" y="70" width="199" height="394" rx="12" fill="#1b2b44" stroke="#53667f" stroke-dasharray="5 5"/>
<text x="1066" y="94" font-family="Arial, Helvetica, sans-serif" font-size="13" font-weight="400" text-anchor="middle" fill="#9da7b3">Rebuilt from the record</text>
<path d="M190 182.0H230.0V272.0H270" fill="none" stroke="#79b8ff" stroke-width="1.8" marker-end="url(#arrow)"/>
<rect x="206.5" y="202.0" width="47" height="18" fill="#0d1117"/>
<text x="230.0" y="215.0" font-family="Arial, Helvetica, sans-serif" font-size="12" font-weight="400" text-anchor="middle" fill="#9da7b3">hooks</text>
<path d="M190 362.0H230.0V272.0H270" fill="none" stroke="#79b8ff" stroke-width="1.8" marker-end="url(#arrow)"/>
<rect x="196.0" y="292.0" width="68" height="18" fill="#0d1117"/>
<text x="230.0" y="305.0" font-family="Arial, Helvetica, sans-serif" font-size="12" font-weight="400" text-anchor="middle" fill="#9da7b3">commands</text>
<path d="M420 272.0H460.0V272.0H500" fill="none" stroke="#79b8ff" stroke-width="1.8" marker-end="url(#arrow)"/>
<path d="M650 272.0H690.0V272.0H730" fill="none" stroke="#79b8ff" stroke-width="1.8" marker-end="url(#arrow)"/>
<rect x="663.0" y="247.0" width="54" height="18" fill="#0d1117"/>
<text x="690.0" y="260.0" font-family="Arial, Helvetica, sans-serif" font-size="12" font-weight="400" text-anchor="middle" fill="#9da7b3">append</text>
<path d="M575.0 134V187.0H575.0V240" fill="none" stroke="#79b8ff" stroke-width="1.8" stroke-dasharray="5 5" marker-end="url(#arrow)"/>
<rect x="575.0" y="165.0" width="54" height="18" fill="#0d1117"/>
<text x="602.0" y="178.0" font-family="Arial, Helvetica, sans-serif" font-size="12" font-weight="400" text-anchor="middle" fill="#9da7b3">decide</text>
<path d="M345.0 420V362.0H345.0V304" fill="none" stroke="#79b8ff" stroke-width="1.8" stroke-dasharray="5 5" marker-end="url(#arrow)"/>
<rect x="345.0" y="340.0" width="54" height="18" fill="#0d1117"/>
<text x="372.0" y="353.0" font-family="Arial, Helvetica, sans-serif" font-size="12" font-weight="400" text-anchor="middle" fill="#9da7b3">stages</text>
<path d="M810.0 304V362.0H810.0V420" fill="none" stroke="#79b8ff" stroke-width="1.8" stroke-dasharray="5 5" marker-end="url(#arrow)"/>
<rect x="803.0" y="340.0" width="68" height="18" fill="#0d1117"/>
<text x="837.0" y="353.0" font-family="Arial, Helvetica, sans-serif" font-size="12" font-weight="400" text-anchor="middle" fill="#9da7b3">snapshot</text>
<path d="M890 272.0H940.0V142.0H990" fill="none" stroke="#79b8ff" stroke-width="1.8" marker-end="url(#arrow)"/>
<path d="M890 272.0H940.0V272.0H990" fill="none" stroke="#79b8ff" stroke-width="1.8" marker-end="url(#arrow)"/>
<path d="M890 272.0H940.0V402.0H990" fill="none" stroke="#79b8ff" stroke-width="1.8" marker-end="url(#arrow)"/>
<rect x="40" y="150" width="150" height="64" rx="9" fill="#161b22" stroke="#53667f" stroke-width="1.5"/>
<text x="115.0" y="179.0" font-family="Arial, Helvetica, sans-serif" font-size="16" font-weight="700" text-anchor="middle" fill="#e6edf3">Claude Code</text>
<text x="115.0" y="201.0" font-family="Arial, Helvetica, sans-serif" font-size="12" font-weight="400" text-anchor="middle" fill="#9da7b3">native hooks</text>
<rect x="40" y="330" width="150" height="64" rx="9" fill="#161b22" stroke="#53667f" stroke-width="1.5"/>
<text x="115.0" y="359.0" font-family="Arial, Helvetica, sans-serif" font-size="16" font-weight="700" text-anchor="middle" fill="#e6edf3">Codex</text>
<text x="115.0" y="381.0" font-family="Arial, Helvetica, sans-serif" font-size="12" font-weight="400" text-anchor="middle" fill="#9da7b3">AGENTS.md</text>
<rect x="270" y="240" width="150" height="64" rx="9" fill="#1b2b44" stroke="#79b8ff" stroke-width="1.5"/>
<text x="345.0" y="269.0" font-family="Arial, Helvetica, sans-serif" font-size="16" font-weight="700" text-anchor="middle" fill="#e6edf3">alpaca CLI</text>
<text x="345.0" y="291.0" font-family="Arial, Helvetica, sans-serif" font-size="12" font-weight="400" text-anchor="middle" fill="#9da7b3">the only writer</text>
<rect x="500" y="240" width="150" height="64" rx="9" fill="#161b22" stroke="#53667f" stroke-width="1.5"/>
<text x="575.0" y="269.0" font-family="Arial, Helvetica, sans-serif" font-size="16" font-weight="700" text-anchor="middle" fill="#e6edf3">Gates</text>
<text x="575.0" y="291.0" font-family="Arial, Helvetica, sans-serif" font-size="12" font-weight="400" text-anchor="middle" fill="#9da7b3">seal, done, deploy</text>
<rect x="500" y="70" width="150" height="64" rx="9" fill="#161b22" stroke="#53667f" stroke-width="1.5"/>
<text x="575.0" y="99.0" font-family="Arial, Helvetica, sans-serif" font-size="16" font-weight="700" text-anchor="middle" fill="#e6edf3">Owner</text>
<text x="575.0" y="121.0" font-family="Arial, Helvetica, sans-serif" font-size="12" font-weight="400" text-anchor="middle" fill="#9da7b3">human decisions</text>
<rect x="270" y="420" width="150" height="64" rx="9" fill="#161b22" stroke="#53667f" stroke-width="1.5"/>
<text x="345.0" y="449.0" font-family="Arial, Helvetica, sans-serif" font-size="16" font-weight="700" text-anchor="middle" fill="#e6edf3">Domain profile</text>
<text x="345.0" y="471.0" font-family="Arial, Helvetica, sans-serif" font-size="12" font-weight="400" text-anchor="middle" fill="#9da7b3">optional</text>
<rect x="730" y="240" width="160" height="64" rx="9" fill="#1b2b44" stroke="#79b8ff" stroke-width="1.5"/>
<text x="810.0" y="269.0" font-family="Arial, Helvetica, sans-serif" font-size="16" font-weight="700" text-anchor="middle" fill="#e6edf3">Record</text>
<text x="810.0" y="291.0" font-family="Arial, Helvetica, sans-serif" font-size="12" font-weight="400" text-anchor="middle" fill="#9da7b3">.alpaca/alpaca.db</text>
<rect x="730" y="420" width="160" height="64" rx="9" fill="#161b22" stroke="#53667f" stroke-width="1.5"/>
<text x="810.0" y="449.0" font-family="Arial, Helvetica, sans-serif" font-size="16" font-weight="700" text-anchor="middle" fill="#e6edf3">Backups</text>
<text x="810.0" y="471.0" font-family="Arial, Helvetica, sans-serif" font-size="12" font-weight="400" text-anchor="middle" fill="#9da7b3">verified snapshots</text>
<rect x="990" y="110" width="150" height="64" rx="9" fill="#161b22" stroke="#53667f" stroke-width="1.5"/>
<text x="1065.0" y="139.0" font-family="Arial, Helvetica, sans-serif" font-size="16" font-weight="700" text-anchor="middle" fill="#e6edf3">RESUME.md</text>
<text x="1065.0" y="161.0" font-family="Arial, Helvetica, sans-serif" font-size="12" font-weight="400" text-anchor="middle" fill="#9da7b3">landing pad</text>
<rect x="990" y="240" width="150" height="64" rx="9" fill="#161b22" stroke="#53667f" stroke-width="1.5"/>
<text x="1065.0" y="269.0" font-family="Arial, Helvetica, sans-serif" font-size="16" font-weight="700" text-anchor="middle" fill="#e6edf3">Cockpit</text>
<text x="1065.0" y="291.0" font-family="Arial, Helvetica, sans-serif" font-size="12" font-weight="400" text-anchor="middle" fill="#9da7b3">alpaca serve</text>
<rect x="990" y="370" width="150" height="64" rx="9" fill="#161b22" stroke="#53667f" stroke-width="1.5"/>
<text x="1065.0" y="399.0" font-family="Arial, Helvetica, sans-serif" font-size="16" font-weight="700" text-anchor="middle" fill="#e6edf3">Analytics</text>
<text x="1065.0" y="421.0" font-family="Arial, Helvetica, sans-serif" font-size="12" font-weight="400" text-anchor="middle" fill="#9da7b3">one HTML file</text>
</svg>
