<svg xmlns="http://www.w3.org/2000/svg" width="1200" height="740" viewBox="0 0 1200 740" text-rendering="optimizeLegibility" role="img" aria-labelledby="title">
<title id="title">Autonomous progress</title>
<rect width="1200" height="740" fill="#ffffff"/>
<defs><marker id="arrow" markerWidth="8" markerHeight="8" refX="7" refY="4" orient="auto"><path d="M0 0L8 4L0 8Z" fill="#386cbe"/></marker></defs>
<text x="40" y="35" font-family="Arial, Helvetica, sans-serif" font-size="24" font-weight="700" text-anchor="start" fill="#253041">Autonomous progress</text>
<path d="M290 133L350 133" fill="none" stroke="#386cbe" stroke-width="1.8" marker-end="url(#arrow)"/>
<path d="M570 133L630 133" fill="none" stroke="#386cbe" stroke-width="1.8" marker-end="url(#arrow)"/>
<path d="M850 133L910 133" fill="none" stroke="#386cbe" stroke-width="1.8" marker-end="url(#arrow)"/>
<path d="M1020 171L1020 230L220 230L220 285" fill="none" stroke="#386cbe" stroke-width="1.8" marker-end="url(#arrow)"/>
<rect x="200.0" y="254" width="40" height="18" fill="#ffffff"/>
<text x="220" y="267" font-family="Arial, Helvetica, sans-serif" font-size="12" font-weight="400" text-anchor="middle" fill="#586579">PASS</text>
<path d="M1020 171L1020 230L635 230L635 285" fill="none" stroke="#386cbe" stroke-width="1.8" marker-end="url(#arrow)"/>
<rect x="615.0" y="254" width="40" height="18" fill="#ffffff"/>
<text x="635" y="267" font-family="Arial, Helvetica, sans-serif" font-size="12" font-weight="400" text-anchor="middle" fill="#586579">FAIL</text>
<path d="M1020 171L1020 285" fill="none" stroke="#386cbe" stroke-width="1.8" marker-end="url(#arrow)"/>
<rect x="958.0" y="254" width="124" height="18" fill="#ffffff"/>
<text x="1020" y="267" font-family="Arial, Helvetica, sans-serif" font-size="12" font-weight="400" text-anchor="middle" fill="#586579">BLOCKED / PAUSED</text>
<path d="M220 361L220 450" fill="none" stroke="#386cbe" stroke-width="1.8" marker-end="url(#arrow)"/>
<path d="M220 526L220 600" fill="none" stroke="#386cbe" stroke-width="1.8" marker-end="url(#arrow)"/>
<path d="M100 638L35 638L35 133L70 133" fill="none" stroke="#386cbe" stroke-width="1.8" stroke-dasharray="5 5" marker-end="url(#arrow)"/>
<path d="M580 361L580 403L530 403L530 450" fill="none" stroke="#386cbe" stroke-width="1.8" marker-end="url(#arrow)"/>
<rect x="488.5" y="402" width="33" height="18" fill="#ffffff"/>
<text x="505" y="415" font-family="Arial, Helvetica, sans-serif" font-size="12" font-weight="400" text-anchor="middle" fill="#586579">YES</text>
<path d="M690 361L690 403L730 403L730 450" fill="none" stroke="#386cbe" stroke-width="1.8" marker-end="url(#arrow)"/>
<rect x="742.0" y="402" width="26" height="18" fill="#ffffff"/>
<text x="755" y="415" font-family="Arial, Helvetica, sans-serif" font-size="12" font-weight="400" text-anchor="middle" fill="#586579">NO</text>
<path d="M530 526L530 700L1170 700L1170 60L740 60L740 95" fill="none" stroke="#386cbe" stroke-width="1.8" stroke-dasharray="5 5" marker-end="url(#arrow)"/>
<rect x="822.5" y="677" width="145" height="18" fill="#ffffff"/>
<text x="895" y="690" font-family="Arial, Helvetica, sans-serif" font-size="12" font-weight="400" text-anchor="middle" fill="#586579">Retry within limits</text>
<rect x="70" y="95" width="220" height="76" rx="9" fill="#f3f5f8" stroke="#b1c1d7" stroke-width="1.5"/>
<text x="180.0" y="130.0" font-family="Arial, Helvetica, sans-serif" font-size="16" font-weight="700" text-anchor="middle" fill="#253041">Read the next task</text>
<text x="180.0" y="152.0" font-family="Arial, Helvetica, sans-serif" font-size="12" font-weight="400" text-anchor="middle" fill="#586579">Check scope and dependencies</text>
<rect x="350" y="95" width="220" height="76" rx="9" fill="#f3f5f8" stroke="#b1c1d7" stroke-width="1.5"/>
<text x="460.0" y="130.0" font-family="Arial, Helvetica, sans-serif" font-size="16" font-weight="700" text-anchor="middle" fill="#253041">Claim</text>
<text x="460.0" y="152.0" font-family="Arial, Helvetica, sans-serif" font-size="12" font-weight="400" text-anchor="middle" fill="#586579">Take the task lease</text>
<rect x="630" y="95" width="220" height="76" rx="9" fill="#f3f5f8" stroke="#b1c1d7" stroke-width="1.5"/>
<text x="740.0" y="130.0" font-family="Arial, Helvetica, sans-serif" font-size="16" font-weight="700" text-anchor="middle" fill="#253041">Implement</text>
<text x="740.0" y="152.0" font-family="Arial, Helvetica, sans-serif" font-size="12" font-weight="400" text-anchor="middle" fill="#586579">Work within the agreed scope</text>
<rect x="910" y="95" width="220" height="76" rx="9" fill="#eaf1fc" stroke="#386cbe" stroke-width="1.5"/>
<text x="1020.0" y="130.0" font-family="Arial, Helvetica, sans-serif" font-size="16" font-weight="700" text-anchor="middle" fill="#253041">Run checks</text>
<text x="1020.0" y="152.0" font-family="Arial, Helvetica, sans-serif" font-size="12" font-weight="400" text-anchor="middle" fill="#586579">Save results and evidence</text>
<rect x="100" y="285" width="240" height="76" rx="9" fill="#eaf1fc" stroke="#386cbe" stroke-width="1.5"/>
<text x="220.0" y="320.0" font-family="Arial, Helvetica, sans-serif" font-size="16" font-weight="700" text-anchor="middle" fill="#253041">Write + seal proof</text>
<text x="220.0" y="342.0" font-family="Arial, Helvetica, sans-serif" font-size="12" font-weight="400" text-anchor="middle" fill="#586579">Record what changed and why</text>
<rect x="100" y="450" width="240" height="76" rx="9" fill="#f3f5f8" stroke="#b1c1d7" stroke-width="1.5"/>
<text x="220.0" y="485.0" font-family="Arial, Helvetica, sans-serif" font-size="16" font-weight="700" text-anchor="middle" fill="#253041">Close with proof</text>
<text x="220.0" y="507.0" font-family="Arial, Helvetica, sans-serif" font-size="12" font-weight="400" text-anchor="middle" fill="#586579">Link the sealed report</text>
<rect x="100" y="600" width="240" height="76" rx="9" fill="#f3f5f8" stroke="#b1c1d7" stroke-width="1.5"/>
<text x="220.0" y="635.0" font-family="Arial, Helvetica, sans-serif" font-size="16" font-weight="700" text-anchor="middle" fill="#253041">Next authorized task</text>
<text x="220.0" y="657.0" font-family="Arial, Helvetica, sans-serif" font-size="12" font-weight="400" text-anchor="middle" fill="#586579">Continue within scope</text>
<rect x="460" y="285" width="350" height="76" rx="9" fill="#eaf1fc" stroke="#386cbe" stroke-width="1.5"/>
<text x="635.0" y="320.0" font-family="Arial, Helvetica, sans-serif" font-size="16" font-weight="700" text-anchor="middle" fill="#253041">Permitted retry?</text>
<text x="635.0" y="342.0" font-family="Arial, Helvetica, sans-serif" font-size="12" font-weight="400" text-anchor="middle" fill="#586579">Check rules and attempts left</text>
<rect x="450" y="450" width="160" height="76" rx="9" fill="#f3f5f8" stroke="#b1c1d7" stroke-width="1.5"/>
<text x="530.0" y="485.0" font-family="Arial, Helvetica, sans-serif" font-size="16" font-weight="700" text-anchor="middle" fill="#253041">Retry</text>
<text x="530.0" y="507.0" font-family="Arial, Helvetica, sans-serif" font-size="12" font-weight="400" text-anchor="middle" fill="#586579">Allowed settings</text>
<rect x="650" y="450" width="160" height="76" rx="9" fill="#f3f5f8" stroke="#b1c1d7" stroke-width="1.5"/>
<text x="730.0" y="485.0" font-family="Arial, Helvetica, sans-serif" font-size="16" font-weight="700" text-anchor="middle" fill="#253041">Stop</text>
<text x="730.0" y="507.0" font-family="Arial, Helvetica, sans-serif" font-size="12" font-weight="400" text-anchor="middle" fill="#586579">No retry allowed</text>
<rect x="900" y="285" width="240" height="76" rx="9" fill="#f3f5f8" stroke="#b1c1d7" stroke-width="1.5"/>
<text x="1020.0" y="320.0" font-family="Arial, Helvetica, sans-serif" font-size="16" font-weight="700" text-anchor="middle" fill="#253041">Report what is needed</text>
<text x="1020.0" y="342.0" font-family="Arial, Helvetica, sans-serif" font-size="12" font-weight="400" text-anchor="middle" fill="#586579">Ask the owner when required</text>
</svg>
