<svg xmlns="http://www.w3.org/2000/svg" width="1200" height="620" viewBox="0 0 1200 620" role="img" aria-labelledby="title desc">
<title id="title">Watch the work move through the hub.</title>
<desc id="desc">Simplified illustrative hub: five connected stages and their task cards. Bright blue is live, pale blue is passing work, red is a failed attempt and amber is an owner check-in. Release runs only after an explicit owner approval.</desc>
<rect width="1200" height="620" fill="#0d1117"/>
<text x="40" y="39" font-family="DejaVu Sans Mono, monospace" font-size="12" font-weight="700" fill="#79b8ff">ALPACA / OPERATIONS HUB</text>
<text x="40" y="84" font-family="Arial, Helvetica, sans-serif" font-size="36" font-weight="700" fill="#e6edf3">Watch the work move.</text>
<text x="40" y="115" font-family="Arial, Helvetica, sans-serif" font-size="18" font-weight="400" fill="#9da7b3">Stages, tasks and proof.</text>
<text x="943" y="46" font-family="Arial, Helvetica, sans-serif" font-size="16" font-weight="600" fill="#a5c9ff">4 / 5 stages passed</text>
<text x="943" y="74" font-family="Arial, Helvetica, sans-serif" font-size="13" font-weight="400" fill="#e6b768">Waiting for owner</text>
<text x="47" y="151" font-family="DejaVu Sans Mono, monospace" font-size="11" font-weight="700" fill="#9da7b3">PLAN</text>
<path d="M40 169v-9h436v9" fill="none" stroke="#30363d" stroke-width="1.5"/>
<text x="503" y="151" font-family="DejaVu Sans Mono, monospace" font-size="11" font-weight="700" fill="#9da7b3">EXECUTE</text>
<path d="M496 169v-9h436v9" fill="none" stroke="#30363d" stroke-width="1.5"/>
<text x="959" y="151" font-family="DejaVu Sans Mono, monospace" font-size="11" font-weight="700" fill="#9da7b3">OWNER GATE</text>
<path d="M952 169v-9h208v9" fill="none" stroke="#30363d" stroke-width="1.5"/>
<rect x="40" y="180" width="208" height="92" rx="8" fill="#203651" stroke="#a5c9ff" stroke-width="1.5"/>
<rect x="40" y="181" width="4" height="90" rx="2" fill="#a5c9ff"/>
<text x="54" y="211" font-family="Arial, Helvetica, sans-serif" font-size="18" font-weight="600" fill="#e6edf3">Spec</text>
<text x="54" y="252" font-family="DejaVu Sans Mono, monospace" font-size="12" font-weight="400" fill="#a5c9ff">PASS</text>
<path d="M249 226h15m-5-4 5 4-5 4" fill="none" stroke="#6e7681" stroke-width="1.5"/>
<path d="M144 281v41m-4-5 4 5 4-5" fill="none" stroke="#6e7681" stroke-width="1.3" stroke-dasharray="3 4"/>
<rect x="40" y="333" width="208" height="92" rx="8" fill="#203651" stroke="#a5c9ff" stroke-width="1.5"/>
<rect x="40" y="334" width="4" height="90" rx="2" fill="#a5c9ff"/>
<text x="54" y="364" font-family="Arial, Helvetica, sans-serif" font-size="18" font-weight="600" fill="#e6edf3">Define success</text>
<text x="54" y="405" font-family="DejaVu Sans Mono, monospace" font-size="12" font-weight="400" fill="#a5c9ff">PROOF SEALED</text>
<rect x="268" y="180" width="208" height="92" rx="8" fill="#203651" stroke="#a5c9ff" stroke-width="1.5"/>
<rect x="268" y="181" width="4" height="90" rx="2" fill="#a5c9ff"/>
<text x="282" y="211" font-family="Arial, Helvetica, sans-serif" font-size="18" font-weight="600" fill="#e6edf3">Runbook</text>
<text x="282" y="252" font-family="DejaVu Sans Mono, monospace" font-size="12" font-weight="400" fill="#a5c9ff">PASS</text>
<path d="M477 226h15m-5-4 5 4-5 4" fill="none" stroke="#6e7681" stroke-width="1.5"/>
<path d="M372 281v41m-4-5 4 5 4-5" fill="none" stroke="#6e7681" stroke-width="1.3" stroke-dasharray="3 4"/>
<rect x="268" y="333" width="208" height="92" rx="8" fill="#203651" stroke="#a5c9ff" stroke-width="1.5"/>
<rect x="268" y="334" width="4" height="90" rx="2" fill="#a5c9ff"/>
<text x="282" y="364" font-family="Arial, Helvetica, sans-serif" font-size="18" font-weight="600" fill="#e6edf3">Map the checks</text>
<text x="282" y="405" font-family="DejaVu Sans Mono, monospace" font-size="12" font-weight="400" fill="#a5c9ff">PROOF SEALED</text>
<rect x="496" y="180" width="208" height="92" rx="8" fill="#203651" stroke="#a5c9ff" stroke-width="1.5"/>
<rect x="496" y="181" width="4" height="90" rx="2" fill="#a5c9ff"/>
<text x="510" y="211" font-family="Arial, Helvetica, sans-serif" font-size="18" font-weight="600" fill="#e6edf3">Build</text>
<text x="510" y="252" font-family="DejaVu Sans Mono, monospace" font-size="12" font-weight="400" fill="#a5c9ff">PASS</text>
<path d="M705 226h15m-5-4 5 4-5 4" fill="none" stroke="#6e7681" stroke-width="1.5"/>
<path d="M600 281v41m-4-5 4 5 4-5" fill="none" stroke="#6e7681" stroke-width="1.3" stroke-dasharray="3 4"/>
<rect x="496" y="333" width="208" height="92" rx="8" fill="#203651" stroke="#a5c9ff" stroke-width="1.5"/>
<rect x="496" y="334" width="4" height="90" rx="2" fill="#a5c9ff"/>
<text x="510" y="364" font-family="Arial, Helvetica, sans-serif" font-size="18" font-weight="600" fill="#e6edf3">Implement</text>
<text x="510" y="405" font-family="DejaVu Sans Mono, monospace" font-size="12" font-weight="400" fill="#a5c9ff">PROOF SEALED</text>
<rect x="724" y="180" width="208" height="92" rx="8" fill="#203651" stroke="#a5c9ff" stroke-width="1.5"/>
<rect x="724" y="181" width="4" height="90" rx="2" fill="#a5c9ff"/>
<text x="738" y="211" font-family="Arial, Helvetica, sans-serif" font-size="18" font-weight="600" fill="#e6edf3">Verify</text>
<text x="738" y="252" font-family="DejaVu Sans Mono, monospace" font-size="12" font-weight="400" fill="#a5c9ff">PASS</text>
<path d="M933 226h15m-5-4 5 4-5 4" fill="none" stroke="#6e7681" stroke-width="1.5"/>
<path d="M828 281v41m-4-5 4 5 4-5" fill="none" stroke="#6e7681" stroke-width="1.3" stroke-dasharray="3 4"/>
<rect x="724" y="333" width="208" height="92" rx="8" fill="#203651" stroke="#a5c9ff" stroke-width="1.5"/>
<rect x="724" y="334" width="4" height="90" rx="2" fill="#a5c9ff"/>
<text x="738" y="364" font-family="Arial, Helvetica, sans-serif" font-size="18" font-weight="600" fill="#e6edf3">Run the checks</text>
<text x="738" y="405" font-family="DejaVu Sans Mono, monospace" font-size="12" font-weight="400" fill="#a5c9ff">PROOF SEALED</text>
<rect x="952" y="180" width="208" height="92" rx="8" fill="#30291c" stroke="#e6b768" stroke-width="1.5"/>
<rect x="952" y="181" width="4" height="90" rx="2" fill="#e6b768"/>
<text x="966" y="211" font-family="Arial, Helvetica, sans-serif" font-size="18" font-weight="600" fill="#e6edf3">Release</text>
<text x="966" y="252" font-family="DejaVu Sans Mono, monospace" font-size="12" font-weight="400" fill="#e6b768">PAUSED</text>
<path d="M1056 281v41m-4-5 4 5 4-5" fill="none" stroke="#6e7681" stroke-width="1.3" stroke-dasharray="3 4"/>
<rect x="952" y="333" width="208" height="92" rx="8" fill="#30291c" stroke="#e6b768" stroke-width="1.5"/>
<rect x="952" y="334" width="4" height="90" rx="2" fill="#e6b768"/>
<text x="966" y="364" font-family="Arial, Helvetica, sans-serif" font-size="18" font-weight="600" fill="#e6edf3">Release + health</text>
<text x="966" y="405" font-family="DejaVu Sans Mono, monospace" font-size="12" font-weight="400" fill="#e6b768">OWNER CHECK-IN</text>
<rect x="40" y="447" width="1120" height="82" rx="8" fill="#161b22"/>
<text x="58" y="478" font-family="Arial, Helvetica, sans-serif" font-size="17" font-weight="600" fill="#e6edf3">Verification passed. The agent sealed the work report. Release awaits the owner.</text>
<text x="58" y="507" font-family="Arial, Helvetica, sans-serif" font-size="15" font-weight="400" fill="#9da7b3">RECORDED ATTEMPTS / Attempt 1 failed; attempt 2 passed. Both remain inspectable.</text>
<circle cx="45" cy="564" r="5" fill="#a5c9ff"/>
<text x="59" y="568" font-family="DejaVu Sans Mono, monospace" font-size="12" font-weight="400" fill="#9da7b3">PASS / SEALED</text>
<circle cx="271" cy="564" r="5" fill="#79b8ff"/>
<text x="285" y="568" font-family="DejaVu Sans Mono, monospace" font-size="12" font-weight="400" fill="#9da7b3">LIVE</text>
<circle cx="420" cy="564" r="5" fill="#ff938a"/>
<text x="434" y="568" font-family="DejaVu Sans Mono, monospace" font-size="12" font-weight="400" fill="#9da7b3">FAILED</text>
<circle cx="595" cy="564" r="5" fill="#e6b768"/>
<text x="609" y="568" font-family="DejaVu Sans Mono, monospace" font-size="12" font-weight="400" fill="#9da7b3">CHECK-IN</text>
<circle cx="796" cy="564" r="5" fill="#6e7681"/>
<text x="810" y="568" font-family="DejaVu Sans Mono, monospace" font-size="12" font-weight="400" fill="#9da7b3">NOT STARTED</text>
<text x="40" y="603" font-family="Arial, Helvetica, sans-serif" font-size="12" font-weight="400" fill="#9da7b3">Example data. Stages come from your project profile.</text>
</svg>
